# xmcd CD database file
#
# Track frame offsets:
#	150
#	24881
#	47590
#	65883
#	98168
#	114106
#	131840
#	148090
#	164978
#	185848
#	223737
#	254505
#
# Disc length: 3476 seconds
#
# Revision: 0
# Processed by: cddbd v1.4PL0 Copyright (c) Steve Scherf et al.
# Submitted via: CDex 1.40Beta9
#
DISCID=bc0d920c
DTITLE=Lew Orsoni Quartet - Women Drinking Beer (Live at the Twin Ports Brewing Co. - Superior, WI)
DYEAR=2001
DGENRE=Blues
TTITLE0=City of Darkness
TTITLE1=Blackbirds Bunch Up
TTITLE2=Lake Superior Waltz
TTITLE3=Last Time I Saw Linda
TTITLE4=Fowl Executions
TTITLE5=Hangman
TTITLE6=Soldier's Joy
TTITLE7=Deep Salt Sea
TTITLE8=Mummy's Lament
TTITLE9=Friday night in Paradise
TTITLE10=Jack Sweet
TTITLE11=Irene Goodnight
EXTD=YEAR: 2001 ID3G: 0
EXTT0=
EXTT1=
EXTT2=
EXTT3=
EXTT4=
EXTT5=
EXTT6=
EXTT7=
EXTT8=
EXTT9=
EXTT10=
EXTT11=
PLAYORDER=
